<mxfile host="Electron" agent="Mozilla/5.0 (Windows NT 10.0; Win64; x64) AppleWebKit/537.36 (KHTML, like Gecko) draw.io/28.1.2 Chrome/138.0.7204.243 Electron/37.4.0 Safari/537.36" version="28.1.2">
  <diagram name="Page-1" id="9DWRbn6XYm9ygqhjPftH">
    <mxGraphModel dx="1892" dy="696" grid="1" gridSize="10" guides="1" tooltips="1" connect="1" arrows="1" fold="1" page="1" pageScale="1" pageWidth="850" pageHeight="1100" math="0" shadow="0">
      <root>
        <mxCell id="0" />
        <mxCell id="1" parent="0" />
        <mxCell id="ky70swWBDqQfB5chGUHx-43" value="" style="rounded=0;whiteSpace=wrap;html=1;fillColor=none;strokeColor=default;dashed=1;dashPattern=8 8;" parent="1" vertex="1">
          <mxGeometry x="-490" y="70" width="490" height="440" as="geometry" />
        </mxCell>
        <object label="&lt;div&gt;&lt;br&gt;&lt;/div&gt;&lt;div&gt;&lt;br&gt;&lt;/div&gt;&lt;div&gt;&lt;br&gt;&lt;/div&gt;&lt;div&gt;&lt;br&gt;&lt;/div&gt;&lt;div&gt;&lt;br&gt;&lt;/div&gt;&lt;div&gt;&lt;br&gt;&lt;/div&gt;&lt;div&gt;&lt;br&gt;&lt;/div&gt;" id="ky70swWBDqQfB5chGUHx-44">
          <mxCell style="rounded=0;whiteSpace=wrap;html=1;fillColor=none;dashed=1;dashPattern=8 8;fontFamily=Helvetica;" parent="1" vertex="1">
            <mxGeometry x="20" y="70" width="390" height="440" as="geometry" />
          </mxCell>
        </object>
        <mxCell id="ky70swWBDqQfB5chGUHx-49" value="CRM" style="rounded=0;whiteSpace=wrap;html=1;fillColor=#dae8fc;strokeColor=#6c8ebf;" parent="1" vertex="1">
          <mxGeometry x="-305" y="40" width="120" height="60" as="geometry" />
        </mxCell>
        <mxCell id="ky70swWBDqQfB5chGUHx-50" value="ERP" style="rounded=0;whiteSpace=wrap;html=1;fillColor=#fff2cc;strokeColor=#d6b656;" parent="1" vertex="1">
          <mxGeometry x="158.75" y="50" width="120" height="60" as="geometry" />
        </mxCell>
        <mxCell id="ehDM303ufLC4lNJ84bsM-21" value="&lt;font style=&quot;font-size: 15px;&quot;&gt;crm_cust_info&lt;/font&gt;" style="swimlane;fontStyle=0;childLayout=stackLayout;horizontal=1;startSize=30;horizontalStack=0;resizeParent=1;resizeParentMax=0;resizeLast=0;collapsible=1;marginBottom=0;whiteSpace=wrap;html=1;rounded=1;fillColor=#dae8fc;strokeColor=#6c8ebf;fontSize=26;" vertex="1" parent="1">
          <mxGeometry x="-170" y="340" width="140" height="90" as="geometry" />
        </mxCell>
        <mxCell id="ehDM303ufLC4lNJ84bsM-22" value="&lt;font style=&quot;font-size: 20px;&quot;&gt;cst_id&lt;/font&gt;" style="text;strokeColor=none;fillColor=none;align=left;verticalAlign=middle;spacingLeft=4;spacingRight=4;overflow=hidden;points=[[0,0.5],[1,0.5]];portConstraint=eastwest;rotatable=0;whiteSpace=wrap;html=1;fontSize=26;" vertex="1" parent="ehDM303ufLC4lNJ84bsM-21">
          <mxGeometry y="30" width="140" height="30" as="geometry" />
        </mxCell>
        <mxCell id="ehDM303ufLC4lNJ84bsM-23" value="&lt;span style=&quot;font-size: 20px;&quot;&gt;cst_key&lt;/span&gt;" style="text;strokeColor=none;fillColor=none;align=left;verticalAlign=middle;spacingLeft=4;spacingRight=4;overflow=hidden;points=[[0,0.5],[1,0.5]];portConstraint=eastwest;rotatable=0;whiteSpace=wrap;html=1;fontSize=26;" vertex="1" parent="ehDM303ufLC4lNJ84bsM-21">
          <mxGeometry y="60" width="140" height="30" as="geometry" />
        </mxCell>
        <mxCell id="ehDM303ufLC4lNJ84bsM-24" value="customer information" style="text;html=1;align=center;verticalAlign=middle;whiteSpace=wrap;rounded=0;" vertex="1" parent="1">
          <mxGeometry x="-166.25" y="320" width="130" height="20" as="geometry" />
        </mxCell>
        <mxCell id="ehDM303ufLC4lNJ84bsM-25" value="&lt;font style=&quot;font-size: 15px;&quot;&gt;crm_prd_info&lt;/font&gt;" style="swimlane;fontStyle=0;childLayout=stackLayout;horizontal=1;startSize=30;horizontalStack=0;resizeParent=1;resizeParentMax=0;resizeLast=0;collapsible=1;marginBottom=0;whiteSpace=wrap;html=1;rounded=1;fillColor=#dae8fc;strokeColor=#6c8ebf;fontSize=26;" vertex="1" parent="1">
          <mxGeometry x="-170" y="200" width="140" height="60" as="geometry" />
        </mxCell>
        <mxCell id="ehDM303ufLC4lNJ84bsM-26" value="&lt;font style=&quot;font-size: 20px;&quot;&gt;prd_key&lt;/font&gt;" style="text;strokeColor=none;fillColor=none;align=left;verticalAlign=middle;spacingLeft=4;spacingRight=4;overflow=hidden;points=[[0,0.5],[1,0.5]];portConstraint=eastwest;rotatable=0;whiteSpace=wrap;html=1;fontSize=26;" vertex="1" parent="ehDM303ufLC4lNJ84bsM-25">
          <mxGeometry y="30" width="140" height="30" as="geometry" />
        </mxCell>
        <mxCell id="ehDM303ufLC4lNJ84bsM-27" value="product information" style="text;html=1;align=center;verticalAlign=middle;whiteSpace=wrap;rounded=0;" vertex="1" parent="1">
          <mxGeometry x="-162.5" y="180" width="126.25" height="20" as="geometry" />
        </mxCell>
        <mxCell id="ehDM303ufLC4lNJ84bsM-28" value="&lt;font style=&quot;font-size: 15px;&quot;&gt;crm_sales_details&lt;/font&gt;" style="swimlane;fontStyle=0;childLayout=stackLayout;horizontal=1;startSize=30;horizontalStack=0;resizeParent=1;resizeParentMax=0;resizeLast=0;collapsible=1;marginBottom=0;whiteSpace=wrap;html=1;rounded=1;fillColor=#dae8fc;strokeColor=#6c8ebf;fontSize=20;swimlaneLine=1;glass=0;shadow=0;" vertex="1" parent="1">
          <mxGeometry x="-400" y="270" width="150" height="90" as="geometry">
            <mxRectangle x="40" y="270" width="160" height="40" as="alternateBounds" />
          </mxGeometry>
        </mxCell>
        <mxCell id="ehDM303ufLC4lNJ84bsM-29" value="&lt;font style=&quot;font-size: 20px;&quot;&gt;prd_key&lt;/font&gt;" style="text;strokeColor=none;fillColor=none;align=left;verticalAlign=middle;spacingLeft=4;spacingRight=4;overflow=hidden;points=[[0,0.5],[1,0.5]];portConstraint=eastwest;rotatable=0;whiteSpace=wrap;html=1;fontSize=26;" vertex="1" parent="ehDM303ufLC4lNJ84bsM-28">
          <mxGeometry y="30" width="150" height="30" as="geometry" />
        </mxCell>
        <mxCell id="ehDM303ufLC4lNJ84bsM-30" value="&lt;font style=&quot;font-size: 20px;&quot;&gt;cst_id&lt;/font&gt;" style="text;strokeColor=none;fillColor=none;align=left;verticalAlign=middle;spacingLeft=4;spacingRight=4;overflow=hidden;points=[[0,0.5],[1,0.5]];portConstraint=eastwest;rotatable=0;whiteSpace=wrap;html=1;fontSize=26;" vertex="1" parent="ehDM303ufLC4lNJ84bsM-28">
          <mxGeometry y="60" width="150" height="30" as="geometry" />
        </mxCell>
        <mxCell id="ehDM303ufLC4lNJ84bsM-31" value="transactional records" style="text;html=1;align=center;verticalAlign=middle;whiteSpace=wrap;rounded=0;" vertex="1" parent="1">
          <mxGeometry x="-392.5" y="250" width="135" height="20" as="geometry" />
        </mxCell>
        <mxCell id="ehDM303ufLC4lNJ84bsM-32" value="&lt;font style=&quot;font-size: 15px;&quot;&gt;erp_&lt;span style=&quot;background-color: transparent; color: light-dark(rgb(0, 0, 0), rgb(255, 255, 255));&quot;&gt;cust_az12&lt;/span&gt;&lt;/font&gt;" style="swimlane;fontStyle=0;childLayout=stackLayout;horizontal=1;startSize=30;horizontalStack=0;resizeParent=1;resizeParentMax=0;resizeLast=0;collapsible=1;marginBottom=0;whiteSpace=wrap;html=1;rounded=1;fillColor=#fff2cc;strokeColor=#d6b656;fontSize=10;" vertex="1" parent="1">
          <mxGeometry x="150" y="280" width="140" height="60" as="geometry" />
        </mxCell>
        <mxCell id="ehDM303ufLC4lNJ84bsM-33" value="&lt;font style=&quot;font-size: 20px;&quot;&gt;cid&lt;/font&gt;" style="text;strokeColor=none;fillColor=none;align=left;verticalAlign=middle;spacingLeft=4;spacingRight=4;overflow=hidden;points=[[0,0.5],[1,0.5]];portConstraint=eastwest;rotatable=0;whiteSpace=wrap;html=1;fontSize=26;" vertex="1" parent="ehDM303ufLC4lNJ84bsM-32">
          <mxGeometry y="30" width="140" height="30" as="geometry" />
        </mxCell>
        <mxCell id="ehDM303ufLC4lNJ84bsM-34" value="Extra customer information" style="text;html=1;align=center;verticalAlign=middle;whiteSpace=wrap;rounded=0;" vertex="1" parent="1">
          <mxGeometry x="138.75" y="260" width="165" height="20" as="geometry" />
        </mxCell>
        <mxCell id="ehDM303ufLC4lNJ84bsM-35" value="Customer Location" style="text;html=1;align=center;verticalAlign=middle;whiteSpace=wrap;rounded=0;" vertex="1" parent="1">
          <mxGeometry x="138.75" y="395" width="160" height="15" as="geometry" />
        </mxCell>
        <mxCell id="ehDM303ufLC4lNJ84bsM-36" value="&lt;font style=&quot;font-size: 15px;&quot;&gt;erp_loc&lt;span style=&quot;background-color: transparent; color: light-dark(rgb(0, 0, 0), rgb(255, 255, 255));&quot;&gt;_a101&lt;/span&gt;&lt;/font&gt;" style="swimlane;fontStyle=0;childLayout=stackLayout;horizontal=1;startSize=30;horizontalStack=0;resizeParent=1;resizeParentMax=0;resizeLast=0;collapsible=1;marginBottom=0;whiteSpace=wrap;html=1;rounded=1;fillColor=#fff2cc;strokeColor=#d6b656;fontSize=10;" vertex="1" parent="1">
          <mxGeometry x="148.75" y="410" width="140" height="60" as="geometry" />
        </mxCell>
        <mxCell id="ehDM303ufLC4lNJ84bsM-37" value="&lt;font style=&quot;font-size: 20px;&quot;&gt;cid&lt;/font&gt;" style="text;strokeColor=none;fillColor=none;align=left;verticalAlign=middle;spacingLeft=4;spacingRight=4;overflow=hidden;points=[[0,0.5],[1,0.5]];portConstraint=eastwest;rotatable=0;whiteSpace=wrap;html=1;fontSize=26;" vertex="1" parent="ehDM303ufLC4lNJ84bsM-36">
          <mxGeometry y="30" width="140" height="30" as="geometry" />
        </mxCell>
        <mxCell id="ehDM303ufLC4lNJ84bsM-38" value="Product Categories" style="text;html=1;align=center;verticalAlign=middle;whiteSpace=wrap;rounded=0;" vertex="1" parent="1">
          <mxGeometry x="150" y="130" width="137.5" height="20" as="geometry" />
        </mxCell>
        <mxCell id="ehDM303ufLC4lNJ84bsM-39" value="&lt;font style=&quot;font-size: 15px;&quot;&gt;erp_px_cat&lt;span style=&quot;background-color: transparent; color: light-dark(rgb(0, 0, 0), rgb(255, 255, 255));&quot;&gt;_g1v2&lt;/span&gt;&lt;/font&gt;" style="swimlane;fontStyle=0;childLayout=stackLayout;horizontal=1;startSize=30;horizontalStack=0;resizeParent=1;resizeParentMax=0;resizeLast=0;collapsible=1;marginBottom=0;whiteSpace=wrap;html=1;rounded=1;fillColor=#fff2cc;strokeColor=#d6b656;fontSize=10;" vertex="1" parent="1">
          <mxGeometry x="150" y="150" width="140" height="60" as="geometry" />
        </mxCell>
        <mxCell id="ehDM303ufLC4lNJ84bsM-40" value="&lt;font style=&quot;font-size: 20px;&quot;&gt;id&lt;/font&gt;" style="text;strokeColor=none;fillColor=none;align=left;verticalAlign=middle;spacingLeft=4;spacingRight=4;overflow=hidden;points=[[0,0.5],[1,0.5]];portConstraint=eastwest;rotatable=0;whiteSpace=wrap;html=1;fontSize=26;" vertex="1" parent="ehDM303ufLC4lNJ84bsM-39">
          <mxGeometry y="30" width="140" height="30" as="geometry" />
        </mxCell>
        <mxCell id="ehDM303ufLC4lNJ84bsM-41" value="Products" style="text;html=1;strokeColor=#d6b656;fillColor=#fff2cc;align=center;verticalAlign=middle;whiteSpace=wrap;overflow=hidden;" vertex="1" parent="1">
          <mxGeometry x="-150" y="260" width="90" height="20" as="geometry" />
        </mxCell>
        <mxCell id="ehDM303ufLC4lNJ84bsM-42" value="Customers" style="text;html=1;strokeColor=#9673a6;fillColor=#e1d5e7;align=center;verticalAlign=middle;whiteSpace=wrap;overflow=hidden;" vertex="1" parent="1">
          <mxGeometry x="-150" y="430" width="90" height="20" as="geometry" />
        </mxCell>
        <mxCell id="ehDM303ufLC4lNJ84bsM-43" value="Sales" style="text;html=1;strokeColor=#82b366;fillColor=#d5e8d4;align=center;verticalAlign=middle;whiteSpace=wrap;overflow=hidden;" vertex="1" parent="1">
          <mxGeometry x="-370" y="360" width="90" height="20" as="geometry" />
        </mxCell>
        <mxCell id="ehDM303ufLC4lNJ84bsM-44" value="Products" style="text;html=1;strokeColor=#d6b656;fillColor=#fff2cc;align=center;verticalAlign=middle;whiteSpace=wrap;overflow=hidden;" vertex="1" parent="1">
          <mxGeometry x="175" y="210" width="90" height="20" as="geometry" />
        </mxCell>
        <mxCell id="ehDM303ufLC4lNJ84bsM-45" value="Customers" style="text;html=1;strokeColor=#9673a6;fillColor=#e1d5e7;align=center;verticalAlign=middle;whiteSpace=wrap;overflow=hidden;" vertex="1" parent="1">
          <mxGeometry x="173.75" y="340" width="90" height="20" as="geometry" />
        </mxCell>
        <mxCell id="ehDM303ufLC4lNJ84bsM-46" style="edgeStyle=orthogonalEdgeStyle;rounded=0;orthogonalLoop=1;jettySize=auto;html=1;exitX=1;exitY=0.5;exitDx=0;exitDy=0;entryX=0;entryY=0.5;entryDx=0;entryDy=0;" edge="1" parent="1" source="ehDM303ufLC4lNJ84bsM-29" target="ehDM303ufLC4lNJ84bsM-26">
          <mxGeometry relative="1" as="geometry" />
        </mxCell>
        <mxCell id="ehDM303ufLC4lNJ84bsM-47" style="edgeStyle=orthogonalEdgeStyle;rounded=0;orthogonalLoop=1;jettySize=auto;html=1;exitX=1;exitY=0.5;exitDx=0;exitDy=0;" edge="1" parent="1" source="ehDM303ufLC4lNJ84bsM-30" target="ehDM303ufLC4lNJ84bsM-22">
          <mxGeometry relative="1" as="geometry" />
        </mxCell>
        <mxCell id="ehDM303ufLC4lNJ84bsM-48" value="Customers" style="text;html=1;strokeColor=#9673a6;fillColor=#e1d5e7;align=center;verticalAlign=middle;whiteSpace=wrap;overflow=hidden;" vertex="1" parent="1">
          <mxGeometry x="176.25" y="470" width="90" height="20" as="geometry" />
        </mxCell>
        <mxCell id="ehDM303ufLC4lNJ84bsM-49" style="edgeStyle=orthogonalEdgeStyle;rounded=0;orthogonalLoop=1;jettySize=auto;html=1;exitX=0;exitY=0.5;exitDx=0;exitDy=0;entryX=1.017;entryY=0.813;entryDx=0;entryDy=0;entryPerimeter=0;" edge="1" parent="1" source="ehDM303ufLC4lNJ84bsM-40" target="ehDM303ufLC4lNJ84bsM-26">
          <mxGeometry relative="1" as="geometry" />
        </mxCell>
        <mxCell id="ehDM303ufLC4lNJ84bsM-50" style="edgeStyle=orthogonalEdgeStyle;rounded=0;orthogonalLoop=1;jettySize=auto;html=1;exitX=0;exitY=0.5;exitDx=0;exitDy=0;entryX=1;entryY=0.5;entryDx=0;entryDy=0;" edge="1" parent="1" source="ehDM303ufLC4lNJ84bsM-33" target="ehDM303ufLC4lNJ84bsM-23">
          <mxGeometry relative="1" as="geometry" />
        </mxCell>
        <mxCell id="ehDM303ufLC4lNJ84bsM-51" style="edgeStyle=orthogonalEdgeStyle;rounded=0;orthogonalLoop=1;jettySize=auto;html=1;exitX=0;exitY=0.5;exitDx=0;exitDy=0;entryX=1;entryY=0.5;entryDx=0;entryDy=0;" edge="1" parent="1" source="ehDM303ufLC4lNJ84bsM-37" target="ehDM303ufLC4lNJ84bsM-23">
          <mxGeometry relative="1" as="geometry" />
        </mxCell>
      </root>
    </mxGraphModel>
  </diagram>
</mxfile>
